<?xml version="1.0" encoding="us-ascii" standalone="no"?><svg xmlns="http://www.w3.org/2000/svg" xmlns:xlink="http://www.w3.org/1999/xlink" contentStyleType="text/css" height="245px" preserveAspectRatio="none" style="width:628px;height:245px;" version="1.1" viewBox="0 0 628 245" width="628px" zoomAndPan="magnify"><defs><filter height="300%" id="f1ggomfxlne0zz" width="300%" x="-1" y="-1"><feGaussianBlur result="blurOut" stdDeviation="2.0"/><feColorMatrix in="blurOut" result="blurOut2" type="matrix" values="0 0 0 0 0 0 0 0 0 0 0 0 0 0 0 0 0 0 .4 0"/><feOffset dx="4.0" dy="4.0" in="blurOut2" result="blurOut3"/><feBlend in="SourceGraphic" in2="blurOut3" mode="normal"/></filter></defs><g><!--cluster APDB--><g id="cluster_APDB"><rect fill="#F8F8FF" filter="url(#f1ggomfxlne0zz)" height="226" rx="2.5" ry="2.5" style="stroke:#181818;stroke-width:1.0;" width="103" x="147" y="7"/><text fill="#000000" font-family="sans-serif" font-size="14" font-weight="bold" lengthAdjust="spacing" textLength="42" x="177.5" y="21.9951">APDB</text><text fill="#000000" font-family="sans-serif" font-size="14" font-weight="bold" lengthAdjust="spacing" textLength="83" x="157" y="38.292">Cassandra</text></g><!--entity tables--><g id="elem_tables"><path d="M165.5,68 C165.5,58 198.5,58 198.5,58 C198.5,58 231.5,58 231.5,68 L231.5,109.5938 C231.5,119.5938 198.5,119.5938 198.5,119.5938 C198.5,119.5938 165.5,119.5938 165.5,109.5938 L165.5,68 " fill="#B0C4DE" filter="url(#f1ggomfxlne0zz)" style="stroke:#181818;stroke-width:0.5;"/><path d="M165.5,68 C165.5,78 198.5,78 198.5,78 C198.5,78 231.5,78 231.5,68 " fill="none" style="stroke:#181818;stroke-width:0.5;"/><text fill="#000000" font-family="sans-serif" font-size="14" lengthAdjust="spacing" textLength="46" x="175.5" y="94.9951">DIA/SS</text><text fill="#000000" font-family="sans-serif" font-size="14" lengthAdjust="spacing" textLength="42" x="177.5" y="111.292">tables</text></g><!--entity replica_tables--><g id="elem_replica_tables"><path d="M163,165 C163,155 198.5,155 198.5,155 C198.5,155 234,155 234,165 L234,206.5938 C234,216.5938 198.5,216.5938 198.5,216.5938 C198.5,216.5938 163,216.5938 163,206.5938 L163,165 " fill="#B0C4DE" filter="url(#f1ggomfxlne0zz)" style="stroke:#181818;stroke-width:0.5;"/><path d="M163,165 C163,175 198.5,175 198.5,175 C198.5,175 234,175 234,165 " fill="none" style="stroke:#181818;stroke-width:0.5;"/><text fill="#000000" font-family="sans-serif" font-size="14" lengthAdjust="spacing" textLength="50" x="173.5" y="191.9951">Replica</text><text fill="#000000" font-family="sans-serif" font-size="14" lengthAdjust="spacing" textLength="51" x="173" y="208.292">chunks</text></g><!--entity PPDB--><g id="elem_PPDB"><path d="M450,117 C450,107 479.5,107 479.5,107 C479.5,107 509,107 509,117 L509,158.5938 C509,168.5938 479.5,168.5938 479.5,168.5938 C479.5,168.5938 450,168.5938 450,158.5938 L450,117 " fill="#B0C4DE" filter="url(#f1ggomfxlne0zz)" style="stroke:#181818;stroke-width:0.5;"/><path d="M450,117 C450,127 479.5,127 479.5,127 C479.5,127 509,127 509,117 " fill="none" style="stroke:#181818;stroke-width:0.5;"/><text fill="#000000" font-family="sans-serif" font-size="14" lengthAdjust="spacing" textLength="39" x="460" y="143.9951">PPDB</text><text fill="#000000" font-family="sans-serif" font-size="14" lengthAdjust="spacing" textLength="27" x="466" y="160.292">SQL</text></g><!--entity pipeline--><g id="elem_pipeline"><rect fill="#D3D3D3" filter="url(#f1ggomfxlne0zz)" height="32.2969" rx="2.5" ry="2.5" style="stroke:#181818;stroke-width:0.5;" width="92" x="11" y="124"/><rect fill="#D3D3D3" height="32.2969" rx="2.5" ry="2.5" style="stroke:#181818;stroke-width:0.5;" width="92" x="7" y="120"/><text fill="#000000" font-family="sans-serif" font-size="14" lengthAdjust="spacing" textLength="76" x="15" y="140.9951">AP pipeline</text></g><!--entity replication--><g id="elem_replication"><rect fill="#F5F5F5" filter="url(#f1ggomfxlne0zz)" height="52.5938" rx="2.5" ry="2.5" style="stroke:#181818;stroke-width:0.5;" width="96" x="294" y="155.5"/><text fill="#000000" font-family="sans-serif" font-size="14" lengthAdjust="spacing" textLength="76" x="304" y="178.4951">Replication</text><text fill="#000000" font-family="sans-serif" font-size="14" lengthAdjust="spacing" textLength="56" x="314" y="194.792">process</text></g><!--entity daily_updates--><g id="elem_daily_updates"><rect fill="#F5F5F5" filter="url(#f1ggomfxlne0zz)" height="52.5938" rx="2.5" ry="2.5" style="stroke:#181818;stroke-width:0.5;" width="95" x="294.5" y="65.5"/><text fill="#000000" font-family="sans-serif" font-size="14" lengthAdjust="spacing" textLength="75" x="304.5" y="88.4951">Daily APDB</text><text fill="#000000" font-family="sans-serif" font-size="14" lengthAdjust="spacing" textLength="57" x="313.5" y="104.792">updates</text></g><!--entity SSP--><g id="elem_SSP"><rect fill="#F5F5F5" filter="url(#f1ggomfxlne0zz)" height="36.2969" rx="2.5" ry="2.5" style="stroke:#181818;stroke-width:0.5;" width="47" x="569" y="120"/><text fill="#000000" font-family="sans-serif" font-size="14" lengthAdjust="spacing" textLength="27" x="579" y="142.9951">SSP</text></g><!--link pipeline to tables--><g id="link_pipeline_tables"><path d="M108.7898,119.717 C129.2098,112.647 141.2599,108.472 159.6399,102.112 " fill="none" id="pipeline-tables" style="stroke:#0000CD;stroke-width:2.0;"/><polygon fill="#0000CD" points="103.12,121.68,112.9334,122.5153,107.8448,120.0441,110.316,114.9556,103.12,121.68" style="stroke:#0000CD;stroke-width:2.0;"/><polygon fill="#0000CD" points="165.31,100.15,155.4968,99.313,160.5849,101.785,158.1128,106.8731,165.31,100.15" style="stroke:#0000CD;stroke-width:2.0;"/></g><!--link pipeline to replica_tables--><g id="link_pipeline_replica_tables"><path d="M103.12,153.98 C122.57,160.58 139.0381,166.1723 156.9881,172.2623 " fill="none" id="pipeline-to-replica_tables" style="stroke:#0000CD;stroke-width:2.0;"/><polygon fill="#0000CD" points="162.67,174.19,155.4323,167.5105,157.9351,172.5836,152.862,175.0863,162.67,174.19" style="stroke:#0000CD;stroke-width:2.0;"/></g><!--link replica_tables to replication--><g id="link_replica_tables_replication"><path d="M234.11,185.02 C252.11,184.51 268.3824,184.0488 287.9224,183.4988 " fill="none" id="replica_tables-to-replication" style="stroke:#0000CD;stroke-width:2.0;"/><polygon fill="#0000CD" points="293.92,183.33,284.811,179.5848,288.922,183.4707,285.0361,187.5816,293.92,183.33" style="stroke:#0000CD;stroke-width:2.0;"/></g><!--link replication to PPDB--><g id="link_replication_PPDB"><path d="M390.01,166.73 C409.88,160.28 426.683,154.8219 444.033,149.1919 " fill="none" id="replication-to-PPDB" style="stroke:#0000CD;stroke-width:2.0;"/><polygon fill="#0000CD" points="449.74,147.34,439.9448,146.3132,444.9841,148.8833,442.414,153.9226,449.74,147.34" style="stroke:#0000CD;stroke-width:2.0;"/></g><!--reverse link tables to daily_updates--><g id="link_tables_daily_updates"><path d="M237.6087,89.8064 C256.1187,90.1964 273.72,90.57 294.26,91.01 " fill="none" id="tables-backto-daily_updates" style="stroke:#800000;stroke-width:2.0;"/><polygon fill="#800000" points="231.61,89.68,240.5237,93.8687,236.6089,89.7853,240.6923,85.8705,231.61,89.68" style="stroke:#800000;stroke-width:2.0;"/></g><!--reverse link daily_updates to PPDB--><g id="link_daily_updates_PPDB"><path d="M395.3115,109.7588 C415.3715,116.5688 432.49,122.38 449.97,128.32 " fill="none" id="daily_updates-backto-PPDB" style="stroke:#800000;stroke-width:2.0;"/><polygon fill="#800000" points="389.63,107.83,396.8664,114.5109,394.3646,109.4373,399.4382,106.9355,389.63,107.83" style="stroke:#800000;stroke-width:2.0;"/></g><!--link PPDB to SSP--><g id="link_PPDB_SSP"><path d="M515.09,138 C533.71,138 545.68,138 562.96,138 " fill="none" id="PPDB-SSP" style="stroke:#800000;stroke-width:2.0;"/><polygon fill="#800000" points="509.09,138,518.09,142,514.09,138,518.09,134,509.09,138" style="stroke:#800000;stroke-width:2.0;"/><polygon fill="#800000" points="568.96,138,559.96,134,563.96,138,559.96,142,568.96,138" style="stroke:#800000;stroke-width:2.0;"/></g><!--SRC=[TPFVQeCm5CRlynIXUu3TZtMW5SgW5wuETYEKKptLO4maYMnbzDsNn3-BTlD2oJc_yvtFJ-HuCTH8gbXL6reoXOLXKX2Y6oOwKD3I68gcKh8NvKvogQXH8BHjeJ01LU85UcxUySj4d5MYjMrQs1kgWD8rbFAJYSggz1Wqh3GVLklrleEpjbTm3V2ZPK5K7DVmlfRQVDJCXE8963Y3nZ-LCuF8Oxvm4rNM-9hsgbah6oIa-BLBEzOXPm8fQBg9qlcy8KHDDccK9l48974kTg0rY5B1XduJQgzoj4ZjWwFsQF8QFMPPBeRIHDwMlCAEim9EmTnnAEMYg7lH18CtGcQppzljoxJimLMUMYnPtvvT4ZFbeDM6EvY0Isl2N2QX2tVEHQTaWLhxI1PgmG8_UQy-lsawHPZw2BEtWtkpsopfvvsU1_-pMGBZrrFVMTafPbUXmtSPwzRdwC_6j1ePXK59zviiUuuEju_Gk3hBKkAxFdjxMc8_]--></g></svg>