<?xml version="1.0" encoding="us-ascii" standalone="no"?><svg xmlns="http://www.w3.org/2000/svg" xmlns:xlink="http://www.w3.org/1999/xlink" contentStyleType="text/css" height="245px" preserveAspectRatio="none" style="width:658px;height:245px;" version="1.1" viewBox="0 0 658 245" width="658px" zoomAndPan="magnify"><defs><filter height="300%" id="f4s4vnc7wm11u" width="300%" x="-1" y="-1"><feGaussianBlur result="blurOut" stdDeviation="2.0"/><feColorMatrix in="blurOut" result="blurOut2" type="matrix" values="0 0 0 0 0 0 0 0 0 0 0 0 0 0 0 0 0 0 .4 0"/><feOffset dx="4.0" dy="4.0" in="blurOut2" result="blurOut3"/><feBlend in="SourceGraphic" in2="blurOut3" mode="normal"/></filter></defs><g><!--cluster APDB--><g id="cluster_APDB"><rect fill="#F8F8FF" filter="url(#f4s4vnc7wm11u)" height="226" rx="2.5" ry="2.5" style="stroke:#181818;stroke-width:1.0;" width="103" x="147" y="7"/><text fill="#000000" font-family="sans-serif" font-size="14" font-weight="bold" lengthAdjust="spacing" textLength="42" x="177.5" y="21.9951">APDB</text><text fill="#000000" font-family="sans-serif" font-size="14" font-weight="bold" lengthAdjust="spacing" textLength="83" x="157" y="38.292">Cassandra</text></g><!--entity tables--><g id="elem_tables"><path d="M165.5,68 C165.5,58 198.5,58 198.5,58 C198.5,58 231.5,58 231.5,68 L231.5,109.5938 C231.5,119.5938 198.5,119.5938 198.5,119.5938 C198.5,119.5938 165.5,119.5938 165.5,109.5938 L165.5,68 " fill="#B0C4DE" filter="url(#f4s4vnc7wm11u)" style="stroke:#181818;stroke-width:0.5;"/><path d="M165.5,68 C165.5,78 198.5,78 198.5,78 C198.5,78 231.5,78 231.5,68 " fill="none" style="stroke:#181818;stroke-width:0.5;"/><text fill="#000000" font-family="sans-serif" font-size="14" lengthAdjust="spacing" textLength="46" x="175.5" y="94.9951">DIA/SS</text><text fill="#000000" font-family="sans-serif" font-size="14" lengthAdjust="spacing" textLength="42" x="177.5" y="111.292">tables</text></g><!--entity replica_tables--><g id="elem_replica_tables"><path d="M163,165 C163,155 198.5,155 198.5,155 C198.5,155 234,155 234,165 L234,206.5938 C234,216.5938 198.5,216.5938 198.5,216.5938 C198.5,216.5938 163,216.5938 163,206.5938 L163,165 " fill="#B0C4DE" filter="url(#f4s4vnc7wm11u)" style="stroke:#181818;stroke-width:0.5;"/><path d="M163,165 C163,175 198.5,175 198.5,175 C198.5,175 234,175 234,165 " fill="none" style="stroke:#181818;stroke-width:0.5;"/><text fill="#000000" font-family="sans-serif" font-size="14" lengthAdjust="spacing" textLength="50" x="173.5" y="191.9951">Replica</text><text fill="#000000" font-family="sans-serif" font-size="14" lengthAdjust="spacing" textLength="51" x="173" y="208.292">chunks</text></g><!--entity PPDB--><g id="elem_PPDB"><path d="M465,165 C465,155 494.5,155 494.5,155 C494.5,155 524,155 524,165 L524,206.5938 C524,216.5938 494.5,216.5938 494.5,216.5938 C494.5,216.5938 465,216.5938 465,206.5938 L465,165 " fill="#B0C4DE" filter="url(#f4s4vnc7wm11u)" style="stroke:#181818;stroke-width:0.5;"/><path d="M465,165 C465,175 494.5,175 494.5,175 C494.5,175 524,175 524,165 " fill="none" style="stroke:#181818;stroke-width:0.5;"/><text fill="#000000" font-family="sans-serif" font-size="14" lengthAdjust="spacing" textLength="39" x="475" y="191.9951">PPDB</text><text fill="#000000" font-family="sans-serif" font-size="14" lengthAdjust="spacing" textLength="27" x="481" y="208.292">SQL</text></g><!--entity pipeline--><g id="elem_pipeline"><rect fill="#D3D3D3" filter="url(#f4s4vnc7wm11u)" height="32.2969" rx="2.5" ry="2.5" style="stroke:#181818;stroke-width:0.5;" width="92" x="11" y="124"/><rect fill="#D3D3D3" height="32.2969" rx="2.5" ry="2.5" style="stroke:#181818;stroke-width:0.5;" width="92" x="7" y="120"/><text fill="#000000" font-family="sans-serif" font-size="14" lengthAdjust="spacing" textLength="76" x="15" y="140.9951">AP pipeline</text></g><!--entity replication--><g id="elem_replication"><rect fill="#F5F5F5" filter="url(#f4s4vnc7wm11u)" height="52.5938" rx="2.5" ry="2.5" style="stroke:#181818;stroke-width:0.5;" width="96" x="294" y="159.5"/><text fill="#000000" font-family="sans-serif" font-size="14" lengthAdjust="spacing" textLength="76" x="304" y="182.4951">Replication</text><text fill="#000000" font-family="sans-serif" font-size="14" lengthAdjust="spacing" textLength="56" x="314" y="198.792">process</text></g><!--entity daily_updates--><g id="elem_daily_updates"><rect fill="#F5F5F5" filter="url(#f4s4vnc7wm11u)" height="52.5938" rx="2.5" ry="2.5" style="stroke:#181818;stroke-width:0.5;" width="95" x="294.5" y="65.5"/><text fill="#000000" font-family="sans-serif" font-size="14" lengthAdjust="spacing" textLength="75" x="304.5" y="88.4951">Daily APDB</text><text fill="#000000" font-family="sans-serif" font-size="14" lengthAdjust="spacing" textLength="57" x="313.5" y="104.792">updates</text></g><!--entity DA--><g id="elem_DA"><rect fill="#B0C4DE" filter="url(#f4s4vnc7wm11u)" height="55.5938" rx="2.5" ry="2.5" style="stroke:#181818;stroke-width:0.5;" width="89" x="450" y="64"/><polygon fill="#B0C4DE" points="522,69,522,83,534,83,534,75,528,69,522,69" style="stroke:#181818;stroke-width:0.5;"/><line style="stroke:#181818;stroke-width:0.5;" x1="528" x2="528" y1="69" y2="75"/><line style="stroke:#181818;stroke-width:0.5;" x1="534" x2="528" y1="75" y2="75"/><text fill="#000000" font-family="sans-serif" font-size="14" lengthAdjust="spacing" textLength="59" x="460" y="89.9951">Updated</text><text fill="#000000" font-family="sans-serif" font-size="14" lengthAdjust="spacing" textLength="53" x="463" y="106.292">records</text></g><!--entity SSP--><g id="elem_SSP"><rect fill="#F5F5F5" filter="url(#f4s4vnc7wm11u)" height="36.2969" rx="2.5" ry="2.5" style="stroke:#181818;stroke-width:0.5;" width="47" x="599" y="121"/><text fill="#000000" font-family="sans-serif" font-size="14" lengthAdjust="spacing" textLength="27" x="609" y="143.9951">SSP</text></g><!--link pipeline to tables--><g id="link_pipeline_tables"><path d="M108.7898,119.717 C129.2098,112.647 141.2599,108.472 159.6399,102.112 " fill="none" id="pipeline-tables" style="stroke:#0000CD;stroke-width:2.0;"/><polygon fill="#0000CD" points="103.12,121.68,112.9334,122.5153,107.8448,120.0441,110.316,114.9556,103.12,121.68" style="stroke:#0000CD;stroke-width:2.0;"/><polygon fill="#0000CD" points="165.31,100.15,155.4968,99.313,160.5849,101.785,158.1128,106.8731,165.31,100.15" style="stroke:#0000CD;stroke-width:2.0;"/></g><!--link pipeline to replica_tables--><g id="link_pipeline_replica_tables"><path d="M103.12,153.98 C122.57,160.58 139.0381,166.1723 156.9881,172.2623 " fill="none" id="pipeline-to-replica_tables" style="stroke:#0000CD;stroke-width:2.0;"/><polygon fill="#0000CD" points="162.67,174.19,155.4323,167.5105,157.9351,172.5836,152.862,175.0863,162.67,174.19" style="stroke:#0000CD;stroke-width:2.0;"/></g><!--link replica_tables to replication--><g id="link_replica_tables_replication"><path d="M234.11,186 C252.11,186 268.38,186 287.92,186 " fill="none" id="replica_tables-to-replication" style="stroke:#0000CD;stroke-width:2.0;"/><polygon fill="#0000CD" points="293.92,186,284.92,182,288.92,186,284.92,190,293.92,186" style="stroke:#0000CD;stroke-width:2.0;"/></g><!--link replication to PPDB--><g id="link_replication_PPDB"><path d="M390.21,186 C414.69,186 437.79,186 458.86,186 " fill="none" id="replication-to-PPDB" style="stroke:#0000CD;stroke-width:2.0;"/><polygon fill="#0000CD" points="464.86,186,455.86,182,459.86,186,455.86,190,464.86,186" style="stroke:#0000CD;stroke-width:2.0;"/></g><!--reverse link tables to daily_updates--><g id="link_tables_daily_updates"><path d="M237.6087,89.8064 C256.1187,90.1964 273.72,90.57 294.26,91.01 " fill="none" id="tables-backto-daily_updates" style="stroke:#800000;stroke-width:2.0;"/><polygon fill="#800000" points="231.61,89.68,240.5237,93.8687,236.6089,89.7853,240.6923,85.8705,231.61,89.68" style="stroke:#800000;stroke-width:2.0;"/></g><!--reverse link replica_tables to daily_updates--><g id="link_replica_tables_daily_updates"><path d="M239.1072,159.6892 C259.3172,146.2592 279.91,132.58 300.98,118.58 " fill="none" id="replica_tables-backto-daily_updates" style="stroke:#800000;stroke-width:2.0;"/><polygon fill="#800000" points="234.11,163.01,243.8197,161.3603,238.2744,160.2427,239.392,154.6973,234.11,163.01" style="stroke:#800000;stroke-width:2.0;"/></g><!--reverse link daily_updates to DA--><g id="link_daily_updates_DA"><path d="M395.79,92 C414.95,92 430.99,92 449.81,92 " fill="none" id="daily_updates-backto-DA" style="stroke:#800000;stroke-width:2.0;"/><polygon fill="#800000" points="389.79,92,398.79,96,394.79,92,398.79,88,389.79,92" style="stroke:#800000;stroke-width:2.0;"/></g><!--link PPDB to SSP--><g id="link_PPDB_SSP"><path d="M524.09,175.33 C546.75,166.88 572.3386,157.3376 593.2686,149.5276 " fill="none" id="PPDB-to-SSP" style="stroke:#800000;stroke-width:2.0;"/><polygon fill="#800000" points="598.89,147.43,589.0595,146.8288,594.2055,149.178,591.8563,154.324,598.89,147.43" style="stroke:#800000;stroke-width:2.0;"/></g><!--reverse link DA to SSP--><g id="link_DA_SSP"><path d="M544.8421,110.4057 C564.8821,117.8757 582.19,124.33 598.74,130.51 " fill="none" id="DA-backto-SSP" style="stroke:#800000;stroke-width:2.0;"/><polygon fill="#800000" points="539.22,108.31,546.2561,115.2016,543.9051,110.0564,549.0503,107.7054,539.22,108.31" style="stroke:#800000;stroke-width:2.0;"/></g><!--SRC=[ZPF1QkCm48RlUWgHFi3UIrjmOYY57DoworuCOMfDR15PCfBCRbdoxXqfjYixBRiv96Zq_V_CFx4L7ZttXblPj9uBQR7sqcZ6t4dg7YnqV0lrgR5cq69dbB7SMz2Ehb3xX19uX47vL_pZCoKRtT4rh-aBRKAv5eJvBNL3BWCc5sIjBgtTkjy-ZFPeuJt1NuW5tIXSmu-jSVvNAtrgdeE7Dt3ufNFf4TLMBQR9h9T7gFt_2nfAkgRZ66LdJiXO_PcFzx979JLoS7oJ5VDvmvYTSl6ioBSZa6yhlGFdG0iB6_wNSVg8CHEd7uKkelbJzgCiAtqfJUHvoLlibQpXaEXUBgLAr-sWJudmpDWyxDtz_SFKx2PKRZiKSkZUmYPcAa2h3bSmWx2j2GixIQS8vqhtrjJeN5p9mYrf49NNxdFIObfX4LTOFkz3ilDi6VN1BuBVZIb0glV3q9FjjEPGuPV_PQpJdEDyjAQLP3G6Q-YzMgNv1yrWV11vdiNMFoCbAaqFYh62-YxLmO_GfSaOf2mB5fE6o7HOKgGAuglw1m00]--></g></svg>